<svg width="1915" height="117" viewBox="0 0 1915 117" fill="none" xmlns="http://www.w3.org/2000/svg">
<path d="M1636.5 89.5C1651.5 47 1792.5 114 1914.5 -1.52588e-05L0 -1.52588e-05C0 -1.52588e-05 148.5 33.5 65.5 89.5C-17.5 145.5 133.5 86.1245 286.5 43.5C439.5 0.875458 457.763 48.9853 567.5 52.5C567.5 52.5 581 112 689.5 43.5C798 -25 650 128.501 742.438 64.8125C834.875 1.1245 795.375 86.125 795.375 86.125L925.5 112C686 -74 1235 74.0006 1235 74.0006C1235 74.0006 1566.5 173 1435.5 68.5006C1304.5 -35.9992 1636.5 89.5 1636.5 89.5Z" fill="#B9FF26"/>
</svg>
