<svg width="172" height="172" viewBox="0 0 172 172" fill="none" xmlns="http://www.w3.org/2000/svg">
<g filter="url(#filter0_d_978_27)">
<path d="M15 150.631C14.999 150.939 15.0741 151.244 15.2186 151.516C15.3632 151.789 15.5728 152.022 15.8289 152.195C16.085 152.367 16.3796 152.474 16.6868 152.506C16.9939 152.537 17.3041 152.492 17.5899 152.375L51.1978 138.758H58.3481V154.38C58.3481 154.879 58.5464 155.358 58.8994 155.711C59.2524 156.064 59.7311 156.262 60.2303 156.262H111.015C111.514 156.262 111.993 156.064 112.346 155.711C112.699 155.358 112.897 154.879 112.897 154.38V138.758H119.818L153.65 152.379C153.935 152.494 154.245 152.537 154.551 152.504C154.857 152.472 155.151 152.365 155.406 152.192C155.661 152.02 155.87 151.787 156.014 151.516C156.158 151.244 156.234 150.94 156.234 150.633C156.234 117.164 134.056 108.843 128.306 107.249C131.698 66.4113 113.795 37.3526 101.1 22.22C99.2059 19.9572 96.8384 18.1377 94.1644 16.8902C91.4904 15.6426 88.5752 14.9974 85.6245 15H85.6226C79.6373 15 73.9964 17.6313 70.1474 22.22C57.4598 37.3469 39.566 66.3887 42.9351 107.194C37.6293 108.617 15 116.684 15 150.634V150.631ZM43.3191 110.96C44.2056 118.816 45.892 127.092 48.5383 135.773L18.8189 147.815C19.952 119.466 38.0772 112.411 43.3191 110.96ZM109.133 152.498H62.1125V138.758H109.133V152.498ZM152.413 147.824L122.682 135.854C125.336 127.168 127.028 118.884 127.92 111.022C133.456 112.596 151.291 119.823 152.413 147.824ZM73.0309 24.6386C74.5723 22.7982 76.4988 21.3184 78.6745 20.3037C80.8501 19.2891 83.2219 18.7642 85.6226 18.7662C88.0233 18.7637 90.3953 19.2883 92.571 20.303C94.7468 21.3177 96.6732 22.7978 98.2143 24.6386C100.801 27.7251 103.226 30.9428 105.481 34.279H65.7639C68.0184 30.9429 70.4452 27.7251 73.0309 24.6386ZM63.3283 38.0433H107.917C120.772 58.7001 132.362 91.6342 119.031 134.994H52.2142C38.8847 91.6361 50.4732 58.702 63.3283 38.0433Z" fill="#FF00D6"/>
<path d="M85.6217 89.1008C95.6706 89.1008 103.845 80.9284 103.845 70.8814C103.845 60.8325 95.6706 52.6602 85.6217 52.6602C75.5747 52.6602 67.4023 60.8325 67.4023 70.8795C67.4023 80.9284 75.5747 89.1008 85.6217 89.1008ZM85.6217 56.4245C93.5927 56.4245 100.08 62.9086 100.08 70.8795C100.08 78.8505 93.5927 85.3364 85.6217 85.3364C77.6507 85.3364 71.1667 78.8524 71.1667 70.8814C71.1667 62.9104 77.6507 56.4245 85.6217 56.4245Z" fill="#FF00D6"/>
</g>
<defs>
<filter id="filter0_d_978_27" x="0" y="0" width="171.234" height="171.262" filterUnits="userSpaceOnUse" color-interpolation-filters="sRGB">
<feFlood flood-opacity="0" result="BackgroundImageFix"/>
<feColorMatrix in="SourceAlpha" type="matrix" values="0 0 0 0 0 0 0 0 0 0 0 0 0 0 0 0 0 0 127 0" result="hardAlpha"/>
<feOffset/>
<feGaussianBlur stdDeviation="7.5"/>
<feColorMatrix type="matrix" values="0 0 0 0 1 0 0 0 0 0 0 0 0 0 0.839216 0 0 0 1 0"/>
<feBlend mode="normal" in2="BackgroundImageFix" result="effect1_dropShadow_978_27"/>
<feBlend mode="normal" in="SourceGraphic" in2="effect1_dropShadow_978_27" result="shape"/>
</filter>
</defs>
</svg>
