<svg width="179" height="172" viewBox="0 0 179 172" fill="none" xmlns="http://www.w3.org/2000/svg">
<g filter="url(#filter0_d_978_31)">
<path d="M114.635 119.991C115.982 120.564 117.432 120.861 118.896 120.862C120.281 120.862 121.669 120.595 122.992 120.06C124.323 119.525 125.535 118.732 126.558 117.726C127.581 116.72 128.393 115.521 128.95 114.199C130.088 111.514 130.111 108.545 129.019 105.842C127.926 103.139 125.845 101.023 123.16 99.8842C121.841 99.3213 120.423 99.0251 118.989 99.0128C117.554 99.0006 116.132 99.2725 114.803 99.8128C113.472 100.348 112.26 101.141 111.238 102.147C110.215 103.153 109.402 104.352 108.845 105.674C107.717 108.34 107.693 111.346 108.778 114.03C109.864 116.714 111.97 118.858 114.635 119.991ZM113.086 107.471C113.407 106.707 113.877 106.015 114.468 105.433C115.059 104.852 115.76 104.394 116.529 104.086C117.297 103.773 118.12 103.616 118.949 103.623C119.778 103.631 120.597 103.802 121.36 104.127C122.911 104.784 124.114 106.008 124.746 107.571C125.377 109.133 125.363 110.848 124.704 112.401C124.047 113.952 122.824 115.155 121.261 115.787C119.698 116.418 117.984 116.405 116.433 115.748C114.893 115.092 113.676 113.853 113.049 112.301C112.422 110.75 112.435 109.013 113.086 107.471ZM85.1367 107.483C86.4849 108.057 87.9349 108.354 89.4004 108.356C90.7856 108.356 92.173 108.089 93.4959 107.554C94.8269 107.02 96.0388 106.227 97.0615 105.222C98.0841 104.216 98.8972 103.018 99.4536 101.696C100.581 99.0291 100.604 96.0243 99.5188 93.3403C98.4335 90.6564 96.328 88.5125 93.6642 87.3788C90.9976 86.2513 87.9926 86.2279 85.3089 87.3138C82.6251 88.3997 80.4818 90.5061 79.3495 93.1706C78.2212 95.8362 78.1969 98.8406 79.282 101.524C80.367 104.208 82.4727 106.351 85.1367 107.483ZM83.5879 94.9683C84.2442 93.4296 85.4831 92.2135 87.0336 91.586C88.5842 90.9584 90.3202 90.9705 91.8619 91.6195C95.0654 92.9793 96.5681 96.6899 95.2083 99.8935C94.8869 100.658 94.4171 101.35 93.826 101.931C93.235 102.513 92.5345 102.971 91.7651 103.279C90.997 103.591 90.1747 103.749 89.3456 103.741C88.5165 103.734 87.697 103.563 86.9344 103.238C85.3957 102.583 84.1793 101.345 83.552 99.7946C82.9247 98.2445 82.9376 96.5089 83.5879 94.9683ZM55.6385 94.9775C56.9818 95.5485 58.4264 95.8432 59.8861 95.8441C62.0326 95.8447 64.1319 95.2137 65.9225 94.0297C67.713 92.8458 69.1155 91.1611 69.9554 89.1857C71.094 86.5007 71.117 83.5322 70.0246 80.8288C68.9321 78.1253 66.851 76.0096 64.1637 74.871C61.4787 73.7325 58.5102 73.7071 55.8067 74.8019C53.1033 75.8966 50.9875 77.9755 49.849 80.6628C48.7105 83.3478 48.6851 86.3163 49.7798 89.0198C50.8746 91.7232 52.9558 93.8389 55.6385 94.9775ZM54.0943 82.4605C54.5782 81.3194 55.387 80.3458 56.4202 79.661C57.4533 78.9762 58.665 78.6105 59.9045 78.6093C60.7388 78.6093 61.5754 78.7775 62.366 79.114C63.917 79.7709 65.1201 80.9947 65.7516 82.5573C66.3831 84.1199 66.3693 85.8346 65.7124 87.3857C65.391 88.1504 64.921 88.8437 64.3295 89.4253C63.738 90.0069 63.0369 90.4652 62.2669 90.7737C61.4991 91.0871 60.6766 91.2448 59.8473 91.2377C59.0181 91.2306 58.1985 91.0587 57.4362 90.7322C56.6721 90.4108 55.9794 89.9409 55.3982 89.3499C54.817 88.7588 54.359 88.0583 54.0505 87.2889C53.7385 86.5211 53.5817 85.6991 53.5893 84.8703C53.5968 84.0416 53.7684 83.2225 54.0943 82.4605ZM69.5198 39.6663C65.775 43.4872 62.9611 48.1198 61.2966 53.2043C61.105 53.785 61.1518 54.418 61.427 54.9641C61.7021 55.5102 62.1828 55.9247 62.7635 56.1163C63.3442 56.3079 63.9772 56.261 64.5234 55.9859C65.0695 55.7108 65.4839 55.23 65.6756 54.6494C67.1221 50.2321 69.5659 46.2071 72.8179 42.886C73.0338 42.6704 73.2046 42.4141 73.3207 42.1319C73.4367 41.8497 73.4955 41.5473 73.4938 41.2422C73.492 40.9371 73.4297 40.6354 73.3104 40.3546C73.1912 40.0738 73.0174 39.8194 72.7991 39.6063C72.5808 39.3932 72.3223 39.2255 72.0387 39.1131C71.7551 39.0006 71.452 38.9456 71.1469 38.9511C70.8419 38.9567 70.541 39.0228 70.2617 39.1456C69.9824 39.2683 69.7302 39.4453 69.5198 39.6663ZM116.522 30.5488C104.324 25.3747 90.7372 26.2275 79.2573 32.8812C78.7283 33.1874 78.3426 33.6913 78.185 34.2819C78.0275 34.8725 78.111 35.5016 78.4172 36.0306C78.7235 36.5597 79.2273 36.9454 79.818 37.1029C80.4086 37.2605 81.0376 37.1769 81.5666 36.8707C91.7858 30.9475 103.867 30.1939 114.722 34.7941C115.285 35.0328 115.92 35.0381 116.487 34.8088C117.054 34.5795 117.506 34.1344 117.745 33.5715C117.984 33.0085 117.989 32.3738 117.76 31.8069C117.531 31.2401 117.085 30.7875 116.522 30.5488Z" fill="#00E0FF"/>
<path d="M140.991 142.291C143.948 142.288 146.876 141.715 149.615 140.602C152.419 139.477 154.971 137.807 157.125 135.689C159.279 133.571 160.991 131.046 162.162 128.262C164.562 122.606 164.612 116.356 162.31 110.663C160.007 104.97 155.624 100.513 149.97 98.1162L149.68 97.9918L152.084 92.3221C157.882 78.6459 158.007 63.5292 152.436 49.7584C146.866 35.9877 136.266 25.2108 122.588 19.4098C94.3573 7.44363 61.6486 20.6728 49.6755 48.9034L47.274 54.5707L46.9813 54.4462C44.2036 53.2594 41.218 52.6355 38.1975 52.6106C35.177 52.5856 32.1816 53.1602 29.3847 54.301C26.5814 55.4262 24.029 57.0961 21.8753 59.2141C19.7217 61.3322 18.0094 63.8564 16.8377 66.6406C15.6505 69.4185 15.0261 72.4043 15.0008 75.4252C14.9755 78.4461 15.5497 81.442 16.6902 84.2395C17.8154 87.0428 19.4853 89.5951 21.6033 91.7488C23.7214 93.9025 26.2456 95.6147 29.0298 96.7864L38.6704 100.875L23.6321 110.221C23.3685 110.377 23.1387 110.585 22.9564 110.831C22.774 111.078 22.6427 111.358 22.57 111.656C22.4974 111.954 22.4849 112.263 22.5333 112.566C22.5817 112.869 22.6901 113.159 22.852 113.419C23.0139 113.68 23.2262 113.905 23.4763 114.082C23.7264 114.26 24.0095 114.385 24.3088 114.452C24.6081 114.518 24.9176 114.525 25.2193 114.47C25.5211 114.416 25.8089 114.301 26.0659 114.134L43.75 103.143C43.7846 103.122 43.8031 103.085 43.8353 103.062L117.211 134.174C117.218 134.213 117.204 134.252 117.213 134.291L121.608 154.642C121.737 155.24 122.098 155.762 122.612 156.094C123.125 156.425 123.75 156.54 124.348 156.411C124.945 156.282 125.468 155.921 125.799 155.408C126.131 154.894 126.245 154.269 126.116 153.672L122.378 136.365L132.019 140.454C134.856 141.663 137.907 142.288 140.991 142.291ZM53.9185 50.7011C64.8959 24.8098 94.892 12.6731 120.788 23.6528C133.33 28.9698 143.052 38.8548 148.161 51.4847C153.271 64.1146 153.155 77.9798 147.836 90.5221L145.432 96.1918L51.5147 56.3707L53.9185 50.7011ZM20.9609 82.5109C20.049 80.2744 19.5898 77.8792 19.61 75.464C19.6302 73.0487 20.1293 70.6615 21.0784 68.4405C25.0334 59.1087 35.8471 54.7366 45.1813 58.6916L148.168 102.357C152.69 104.274 156.193 107.838 158.035 112.389C159.876 116.941 159.835 121.938 157.917 126.46C156.98 128.686 155.611 130.704 153.889 132.398C152.167 134.091 150.126 135.427 147.885 136.326C145.648 137.238 143.253 137.697 140.838 137.677C138.422 137.657 136.035 137.158 133.814 136.209L30.8274 92.5434C28.6013 91.6065 26.583 90.2374 24.8894 88.5153C23.1958 86.7932 21.8606 84.7524 20.9609 82.5109Z" fill="#00E0FF"/>
</g>
<defs>
<filter id="filter0_d_978_31" x="0" y="0" width="179" height="171.462" filterUnits="userSpaceOnUse" color-interpolation-filters="sRGB">
<feFlood flood-opacity="0" result="BackgroundImageFix"/>
<feColorMatrix in="SourceAlpha" type="matrix" values="0 0 0 0 0 0 0 0 0 0 0 0 0 0 0 0 0 0 127 0" result="hardAlpha"/>
<feOffset/>
<feGaussianBlur stdDeviation="7.5"/>
<feColorMatrix type="matrix" values="0 0 0 0 0 0 0 0 0 0.878431 0 0 0 0 1 0 0 0 1 0"/>
<feBlend mode="normal" in2="BackgroundImageFix" result="effect1_dropShadow_978_31"/>
<feBlend mode="normal" in="SourceGraphic" in2="effect1_dropShadow_978_31" result="shape"/>
</filter>
</defs>
</svg>
