<svg width="267" height="395" viewBox="0 0 267 395" fill="none" xmlns="http://www.w3.org/2000/svg">
<path d="M267 352.26H0L100.125 50.4829H166.875L267 352.26Z" fill="#B7E8C4" fill-opacity="0.53"/>
<path d="M267 351.701C267 327.845 207.23 308.508 133.502 308.508C59.7702 308.508 0 327.845 0 351.701C0 375.553 59.7702 394.89 133.502 394.89C207.23 394.89 267 375.553 267 351.701Z" fill="#4CC66E" fill-opacity="0.22"/>
<path d="M222.119 59.253C222.119 40.5527 180.432 25.394 129.007 25.394C77.5803 25.394 35.8926 40.5527 35.8926 59.253C35.8926 77.9534 77.5803 93.1136 129.007 93.1136C180.432 93.1136 222.119 77.9534 222.119 59.253Z" fill="#D6DEFF"/>
<path d="M222.119 59.253C222.119 40.5527 180.432 25.394 129.007 25.394C77.5803 25.394 35.8926 40.5527 35.8926 59.253C35.8926 77.9534 77.5803 93.1136 129.007 93.1136C180.432 93.1136 222.119 77.9534 222.119 59.253Z" fill="#33527D"/>
<path d="M213.65 50.7887C213.65 36.7629 175.751 25.394 129.001 25.394C82.2515 25.394 44.3516 36.7629 44.3516 50.7887C44.3516 64.8145 82.2515 76.1833 129.001 76.1833C175.751 76.1833 213.65 64.8145 213.65 50.7887Z" fill="#5E7599"/>
<path d="M205.196 55.0221C205.196 43.3339 176.771 33.8589 141.709 33.8589C106.646 33.8589 78.2227 43.3339 78.2227 55.0221C78.2227 66.7088 106.646 76.1838 141.709 76.1838C176.771 76.1838 205.196 66.7088 205.196 55.0221Z" fill="#435E88"/>
<path d="M78.2227 50.7893C78.2227 22.7397 100.961 0 129.012 0C157.062 0 179.801 22.7397 179.801 50.7893C179.801 50.7893 162.871 59.2537 129.012 59.2537C95.1514 59.2537 78.2227 50.7893 78.2227 50.7893Z" fill="#5E7599"/>
<path d="M128.268 12.2453C125.515 7.25244 116.041 7.19808 107.109 12.1242C98.1749 17.0484 93.1654 25.0882 95.9164 30.0806C98.6693 35.0715 108.143 35.1254 117.075 30.2013C126.009 25.2755 131.019 17.2373 128.268 12.2449V12.2453Z" fill="#7D8FAC"/>
<path d="M110.324 10.2253C107.468 7.37159 102.153 8.06002 98.4537 11.7629C94.754 15.4657 94.0703 20.7804 96.9268 23.6341C99.7817 26.487 105.097 25.7994 108.796 22.0961C112.496 18.3929 113.179 13.0786 110.324 10.2253Z" fill="#ADB9CA"/>
<path d="M103.612 33.8589C103.612 38.5351 99.8226 42.3248 95.146 42.3248C90.4714 42.3248 86.6816 38.5355 86.6816 33.8589C86.6816 29.1843 90.471 25.3945 95.146 25.3945C99.8222 25.3945 103.612 29.1839 103.612 33.8589ZM137.471 42.3248C137.471 46.9994 133.682 50.7892 129.007 50.7892C124.33 50.7892 120.541 46.9998 120.541 42.3248C120.541 37.6486 124.33 33.8589 129.007 33.8589C133.681 33.8589 137.471 37.6482 137.471 42.3248ZM171.33 33.8589C171.33 38.5351 167.541 42.3248 162.866 42.3248C158.191 42.3248 154.401 38.5355 154.401 33.8589C154.401 29.1843 158.191 25.3945 162.866 25.3945C167.541 25.3945 171.33 29.1839 171.33 33.8589Z" fill="#EFF2FF"/>
<path d="M86.6784 177.768C85.2782 177.765 83.9007 177.415 82.6689 176.75C81.4372 176.084 80.3896 175.123 79.6198 173.954C78.8498 172.785 78.3814 171.443 78.2565 170.049C78.1315 168.655 78.354 167.251 78.904 165.964L104.299 106.709C106.14 102.411 111.117 100.417 115.415 102.26C119.713 104.103 121.703 109.083 119.857 113.38L94.4622 172.635C93.8097 174.158 92.7243 175.457 91.3406 176.37C89.9569 177.282 88.3359 177.769 86.6784 177.768Z" fill="#D5F1DD"/>
<path d="M156.5 337.116L154.817 330.945C159.103 329.092 162.109 326.458 162.109 326.458C162.109 326.458 162.109 332.067 167.718 337.116L162.109 342.725L160.987 351.139C161.135 351.195 161.28 351.251 161.421 351.308C163.389 352.101 164.773 353.031 166.597 355.065C167.423 356.674 167.723 357.624 167.718 359.553L163.792 360.113L158.183 359.553V355.626C157.261 353.218 156.189 352.488 153.695 352.261V350.017L155.939 347.212C157.622 344.408 157.593 339.825 156.5 337.116Z" fill="#00FF19" fill-opacity="0.78"/>
<path d="M154.817 330.945L154.619 330.486L154.221 330.659L154.335 331.077L154.817 330.945ZM156.5 337.116L156.018 337.247L156.025 337.275L156.036 337.303L156.5 337.116ZM155.939 347.212L156.329 347.525L156.35 347.498L156.368 347.469L155.939 347.212ZM153.695 350.017L153.305 349.704L153.195 349.841V350.017H153.695ZM153.695 352.261H153.195V352.717L153.65 352.758L153.695 352.261ZM158.183 359.553H157.683V360.005L158.133 360.05L158.183 359.553ZM163.792 360.113L163.742 360.611L163.803 360.617L163.863 360.608L163.792 360.113ZM167.718 359.553L167.789 360.048L168.217 359.986L168.218 359.554L167.718 359.553ZM166.597 355.065L167.041 354.837L167.012 354.779L166.969 354.731L166.597 355.065ZM160.987 351.139L160.492 351.073L160.439 351.466L160.81 351.606L160.987 351.139ZM162.109 342.725L161.756 342.371L161.636 342.491L161.614 342.659L162.109 342.725ZM167.718 337.116L168.072 337.469L168.445 337.096L168.053 336.744L167.718 337.116ZM162.109 326.458H162.609C162.609 326.262 162.494 326.084 162.316 326.003C162.137 325.922 161.927 325.953 161.78 326.082L162.109 326.458ZM154.335 331.077L156.018 337.247L156.982 336.984L155.3 330.814L154.335 331.077ZM156.036 337.303C156.551 338.579 156.825 340.329 156.761 342.11C156.696 343.893 156.294 345.648 155.51 346.955L156.368 347.469C157.267 345.971 157.692 344.034 157.76 342.146C157.828 340.257 157.542 338.362 156.964 336.928L156.036 337.303ZM155.549 346.9L153.305 349.704L154.086 350.329L156.329 347.525L155.549 346.9ZM153.195 350.017V352.261H154.195V350.017H153.195ZM153.65 352.758C154.864 352.869 155.646 353.097 156.232 353.528C156.815 353.958 157.27 354.639 157.716 355.805L158.65 355.447C158.174 354.205 157.632 353.317 156.825 352.723C156.021 352.13 155.02 351.879 153.741 351.763L153.65 352.758ZM157.683 355.626V359.553H158.683V355.626H157.683ZM158.133 360.05L163.742 360.611L163.842 359.616L158.232 359.055L158.133 360.05ZM163.863 360.608L167.789 360.048L167.648 359.058L163.721 359.618L163.863 360.608ZM168.218 359.554C168.221 358.563 168.145 357.797 167.953 357.063C167.762 356.33 167.461 355.653 167.041 354.837L166.152 355.294C166.559 356.086 166.822 356.688 166.986 357.316C167.149 357.94 167.221 358.614 167.218 359.551L168.218 359.554ZM166.969 354.731C165.098 352.645 163.653 351.668 161.608 350.844L161.234 351.772C163.126 352.534 164.447 353.417 166.224 355.399L166.969 354.731ZM161.608 350.844C161.463 350.786 161.315 350.728 161.164 350.671L160.81 351.606C160.955 351.661 161.097 351.716 161.234 351.772L161.608 350.844ZM161.483 351.205L162.605 342.791L161.614 342.659L160.492 351.073L161.483 351.205ZM162.463 343.078L168.072 337.469L167.365 336.762L161.756 342.371L162.463 343.078ZM158.583 355.926L161.821 351.608L161.021 351.008L157.783 355.326L158.583 355.926ZM161.821 351.608L161.948 351.439L161.148 350.839L161.021 351.008L161.821 351.608ZM162.109 326.458C161.609 326.458 161.609 326.458 161.609 326.459C161.609 326.459 161.609 326.459 161.609 326.459C161.609 326.46 161.609 326.46 161.609 326.461C161.609 326.462 161.609 326.464 161.609 326.466C161.609 326.47 161.609 326.475 161.609 326.482C161.61 326.496 161.61 326.514 161.611 326.538C161.612 326.586 161.615 326.655 161.621 326.742C161.633 326.918 161.656 327.169 161.702 327.485C161.794 328.117 161.976 329.007 162.338 330.057C163.063 332.159 164.508 334.899 167.384 337.487L168.053 336.744C165.32 334.284 163.96 331.695 163.283 329.731C162.944 328.747 162.775 327.919 162.692 327.342C162.65 327.053 162.629 326.827 162.619 326.675C162.614 326.6 162.611 326.543 162.61 326.506C162.61 326.488 162.609 326.474 162.609 326.466C162.609 326.462 162.609 326.46 162.609 326.458C162.609 326.457 162.609 326.457 162.609 326.457C162.609 326.457 162.609 326.457 162.609 326.457C162.609 326.457 162.609 326.458 162.609 326.458C162.609 326.458 162.609 326.458 162.109 326.458ZM155.016 331.404C157.197 330.461 159.049 329.321 160.355 328.418C161.008 327.966 161.527 327.572 161.883 327.291C162.061 327.15 162.198 327.037 162.292 326.959C162.339 326.919 162.375 326.889 162.399 326.868C162.412 326.857 162.421 326.849 162.428 326.844C162.431 326.841 162.434 326.839 162.435 326.837C162.436 326.836 162.437 326.836 162.438 326.835C162.438 326.835 162.438 326.835 162.438 326.834C162.438 326.834 162.438 326.834 162.438 326.834C162.439 326.834 162.439 326.834 162.109 326.458C161.78 326.082 161.78 326.082 161.78 326.082C161.78 326.082 161.78 326.082 161.78 326.082C161.78 326.082 161.78 326.082 161.78 326.082C161.78 326.082 161.779 326.082 161.779 326.083C161.777 326.084 161.776 326.085 161.773 326.088C161.768 326.092 161.76 326.099 161.749 326.108C161.728 326.127 161.695 326.155 161.651 326.191C161.564 326.264 161.433 326.371 161.262 326.506C160.921 326.776 160.42 327.157 159.786 327.595C158.517 328.473 156.723 329.576 154.619 330.486L155.016 331.404Z" fill="black"/>
<path d="M90.4926 347.514C90.4926 347.514 92.1731 344.36 91.6145 341.344C91.0549 338.324 88.5002 336.175 87.5156 335.446C88.6776 333.504 89.9317 331.809 89.9317 331.809C89.9317 331.809 91.8451 329.406 93.5988 327.58L97.2237 330.687V340.783L101.711 349.758L103.955 351.441L106.199 354.806C106.199 354.806 103.896 356.109 102.272 356.489C100.139 356.989 96.6628 356.489 96.6628 356.489L96.1019 352.563C95.541 348.075 92.1754 348.075 90.4926 347.514Z" fill="#467D00"/>
<path d="M96.1019 352.563C95.541 348.075 92.1754 348.075 90.4926 347.514C90.4926 347.514 92.1731 344.36 91.6145 341.344C91.0549 338.324 88.5002 336.175 87.5156 335.446C88.6776 333.504 89.9317 331.809 89.9317 331.809C89.9317 331.809 91.8451 329.406 93.5988 327.58L97.2237 330.687V340.783L101.711 349.758M96.1019 352.563L96.6628 356.489C96.6628 356.489 100.139 356.989 102.272 356.489C103.896 356.109 106.199 354.806 106.199 354.806L103.955 351.441L101.711 349.758M96.1019 352.563L101.711 349.758" stroke="black"/>
<path fill-rule="evenodd" clip-rule="evenodd" d="M53.2986 281.086C56.687 280.561 61.1516 277.159 61.1516 277.159C63.7006 274.592 65.1904 267.919 66.4215 262.405C66.5366 261.889 66.6495 261.384 66.7608 260.892C68.0411 257.116 69.2528 255.191 71.4601 251.686C71.746 251.232 72.0485 250.751 72.3701 250.237C75.1747 245.749 79.6621 243.502 88.6369 239.016C95.5341 231.715 99.7902 234.683 104.165 237.734C105.838 238.901 107.529 240.08 109.391 240.701C113.425 242.046 116.055 242.225 119.169 242.437C120.751 242.545 122.457 242.661 124.536 242.943C126.825 243.253 128.759 243.685 130.588 244.094C134.008 244.858 137.058 245.539 141.364 245.187C146.803 244.742 148.946 243.752 150.414 243.074C151.369 242.634 152.038 242.325 153.143 242.382C154.429 242.449 156.187 243.162 158.308 244.023C160.813 245.04 163.825 246.263 167.166 246.869C171.329 247.625 177.263 242.943 177.263 242.943C179.587 244.991 181.076 245.786 184.555 246.308C184.256 259.128 185.869 266.619 193.53 278.283C183.994 285.577 183.919 296.097 183.994 308.571C183.573 315.753 179.629 318.545 175.798 321.258L175.58 321.412C175.417 333.019 176.477 340.103 178.385 351.701L173.417 356.75L172.776 355.628L170.532 355.067C171.483 347.139 171.163 343.242 168.288 337.678C165.916 336.584 163.687 334.082 162.118 327.021C159.491 329.648 152.691 332.326 150.679 333.119L150.677 333.119C150.542 333.173 150.428 333.218 150.339 333.253C141.103 336.942 135.964 335.565 127.722 333.356L127.341 333.253C124.077 332.379 121.96 331.094 119.86 329.819C117.82 328.581 115.798 327.352 112.757 326.522C106.121 324.711 102.096 324.416 95.368 328.764C88.6398 333.113 85.8154 336.834 81.3448 343.348C81.0382 343.795 80.7529 344.185 80.4848 344.551C79.7307 345.58 79.1129 346.423 78.5402 347.836L78.4913 347.957C77.6794 349.958 77.1467 351.272 77.4184 353.445C77.5902 354.82 78.5402 356.811 78.5402 356.811C77.577 356.337 73.5075 358.922 72.3701 361.3C72.3373 357.74 69.5486 356.704 68.1267 356.176C67.592 355.978 67.2506 355.851 67.3217 355.689C72.1461 354.345 77.4184 337.18 75.7356 316.985C75.4652 313.74 75.1598 310.637 74.8643 307.633C73.2227 290.95 71.8853 277.359 78.5402 259.771C81.4656 252.039 89.7587 241.821 89.7587 241.821C89.7587 241.821 76.2965 247.991 71.8091 255.283C67.3217 262.575 65.078 277.72 65.078 277.72C65.078 277.72 64.5171 282.208 61.1516 288.378C57.786 294.548 55.5423 295.67 55.5423 295.67L57.786 292.304L59.4688 288.378C59.4688 288.378 57.6714 291.306 56.1033 292.304C54.35 293.42 51.6159 293.426 51.6159 293.426L56.1033 290.061C56.1033 290.061 52.8613 291.182 51.0549 291.182C49.2486 291.182 46.5675 290.061 46.5675 290.061C48.0673 289.846 49.1579 289.796 50.0894 289.752C51.5965 289.683 52.6871 289.632 54.4205 288.939C55.6064 288.464 57.2251 287.256 57.2251 287.256C57.2251 287.256 53.5608 287.024 50.494 286.695C47.4272 286.366 44.8848 283.329 44.8848 283.329C44.8848 283.329 47.9163 284.345 49.9331 284.451C51.914 284.555 54.9814 283.89 54.9814 283.89C54.9814 283.89 51.5627 283.426 49.3722 282.768C47.1816 282.111 46.5675 280.525 46.5675 280.525C46.5675 280.525 50.692 281.49 53.2986 281.086Z" fill="#8FFF00"/>
<path d="M80.7839 359.615C80.0489 358.421 78.5402 356.811 78.5402 356.811C77.577 356.337 73.5075 358.922 72.3701 361.3V365.224C72.3701 365.224 76.1995 365.797 78.5402 365.224C80.1608 364.828 82.4667 363.542 82.4667 363.542C82.4667 363.542 81.6581 361.036 80.7839 359.615Z" fill="#620DF8"/>
<path d="M182.872 355.628L178.385 351.701L173.417 356.75L175.019 359.554L180.068 360.676L184.555 360.115L182.872 355.628Z" fill="#5B5C6C"/>
<path d="M175.58 321.412C176.72 312.063 177.746 307.184 181.189 300.096M175.58 321.412C175.417 333.019 176.477 340.103 178.385 351.701M175.58 321.412C175.653 321.36 175.725 321.309 175.798 321.258M175.58 321.412L175.798 321.258M127.341 333.253C124.077 332.379 121.959 331.094 119.86 329.819C117.82 328.581 115.798 327.352 112.757 326.522C106.121 324.711 102.096 324.416 95.368 328.764C88.6398 333.113 85.8154 336.834 81.3448 343.348C81.0382 343.795 80.7529 344.185 80.4848 344.551C79.7307 345.58 79.1129 346.423 78.5402 347.836M127.341 333.253C127.468 333.288 127.596 333.322 127.722 333.356M127.341 333.253L127.722 333.356M78.5402 347.836L78.4913 347.957M78.5402 347.836C78.5238 347.876 78.5075 347.917 78.4913 347.957M78.5402 356.811C78.5402 356.811 77.5902 354.82 77.4184 353.445C77.1467 351.272 77.6794 349.958 78.4913 347.957M78.5402 356.811C78.5402 356.811 80.0489 358.421 80.7839 359.615C81.6581 361.036 82.4667 363.542 82.4667 363.542C82.4667 363.542 80.1608 364.828 78.5402 365.224C76.1995 365.797 72.3701 365.224 72.3701 365.224M78.5402 356.811C77.577 356.337 73.5075 358.922 72.3701 361.3M72.3701 365.224C72.3701 365.224 72.3701 362.833 72.3701 361.3M72.3701 365.224V361.3M72.3701 361.3C72.3373 357.74 69.5486 356.704 68.1267 356.176C67.592 355.978 67.2506 355.851 67.3217 355.689C72.1461 354.345 77.4184 337.18 75.7356 316.985C75.4652 313.74 75.1598 310.637 74.8643 307.633C73.2227 290.95 71.8853 277.359 78.5402 259.771C81.4656 252.039 89.7587 241.821 89.7587 241.821C89.7587 241.821 76.2965 247.991 71.8091 255.283C67.3217 262.575 65.078 277.72 65.078 277.72C65.078 277.72 64.5171 282.208 61.1516 288.378C57.786 294.548 55.5423 295.67 55.5423 295.67L57.786 292.304L59.4688 288.378C59.4688 288.378 57.6714 291.306 56.1033 292.304C54.35 293.42 51.6159 293.426 51.6159 293.426L56.1033 290.061C56.1033 290.061 52.8613 291.182 51.0549 291.182C49.2486 291.182 46.5675 290.061 46.5675 290.061C48.0673 289.846 49.1579 289.796 50.0894 289.752C51.5965 289.683 52.6871 289.632 54.4205 288.939C55.6064 288.464 57.2251 287.256 57.2251 287.256C57.2251 287.256 53.5608 287.024 50.494 286.695C47.4272 286.366 44.8848 283.329 44.8848 283.329C44.8848 283.329 47.9163 284.345 49.9331 284.451C51.914 284.555 54.9814 283.89 54.9814 283.89C54.9814 283.89 51.5627 283.426 49.3722 282.768C47.1816 282.111 46.5675 280.525 46.5675 280.525C46.5675 280.525 50.692 281.49 53.2986 281.086C56.687 280.561 61.1516 277.159 61.1516 277.159C63.7006 274.592 65.1904 267.919 66.4215 262.405C66.5366 261.889 66.6495 261.384 66.7608 260.892C68.0411 257.116 69.2528 255.191 71.4601 251.686C71.746 251.232 72.0485 250.751 72.3701 250.237C75.1747 245.749 79.6621 243.502 88.6369 239.016C95.5341 231.715 99.7902 234.683 104.165 237.734C105.838 238.901 107.529 240.08 109.391 240.701C113.425 242.046 116.055 242.225 119.169 242.437C120.751 242.545 122.457 242.661 124.536 242.943C126.825 243.253 128.759 243.685 130.588 244.094C134.008 244.858 137.058 245.539 141.364 245.187C146.803 244.742 148.946 243.752 150.414 243.074C151.369 242.634 152.038 242.325 153.143 242.382C154.429 242.449 156.187 243.162 158.308 244.023C160.813 245.04 163.825 246.263 167.166 246.869C171.329 247.625 177.263 242.943 177.263 242.943C179.587 244.991 181.076 245.786 184.555 246.308C184.256 259.128 185.869 266.619 193.53 278.283C183.994 285.577 183.919 296.097 183.994 308.571C183.573 315.753 179.629 318.545 175.798 321.258M162.118 327.021C163.687 334.082 165.916 336.584 168.288 337.678C171.163 343.242 171.483 347.139 170.532 355.067L172.776 355.628L173.417 356.75M162.118 327.021C163.657 318.363 163.099 313.561 159.313 305.145M162.118 327.021C159.491 329.648 152.691 332.326 150.679 333.119L150.677 333.119C150.542 333.173 150.428 333.218 150.339 333.253C141.103 336.942 135.964 335.565 127.722 333.356M178.385 351.701L182.872 355.628L184.555 360.115L180.068 360.676L175.019 359.554L173.417 356.75M178.385 351.701L173.417 356.75" stroke="black"/>
<path d="M85.0424 277.125C85.0424 277.125 80.8976 278.814 79.4332 281.052C77.2738 284.351 76.2367 288.84 79.4332 291.148C81.7418 292.816 84.7653 289.082 86.7252 291.148C88.1152 292.613 86.419 294.768 87.8471 296.197C89.8667 298.216 95.1391 297.388 95.1391 295.636V291.148C95.1391 289.396 96.9583 288.582 98.5046 288.905C100.337 289.287 98.3209 293.254 100.187 293.392C101.586 293.495 102.418 292.428 102.992 291.148C103.843 289.252 100.893 288.136 101.309 286.1C101.714 284.121 104.802 284.189 104.675 282.173C104.568 280.478 103.342 279.719 101.901 278.827L101.87 278.808C99.4489 277.309 97.0756 280.176 94.5782 278.808C92.0734 277.436 93.4737 273.078 90.6517 272.638C87.8799 272.206 85.0424 277.125 85.0424 277.125Z" fill="#FF00C7" stroke="black"/>
<path d="M171.803 250.975C170.542 254.413 168.418 254.312 167.429 253.385C166.441 252.457 162.919 254.684 162.682 257.601C162.512 259.683 163.921 261.294 165.064 261.818C167.02 262.715 167.238 264.202 166.754 267.842C166.088 272.841 172.723 276.186 173.849 271.456C174.668 268.015 175.861 267.177 178.899 266.636C180.907 266.279 182.598 260.301 181.264 257.601C180.583 256.223 178.234 255.614 177.903 250.975C177.572 246.337 173.065 247.538 171.803 250.975Z" fill="#FF00C7" stroke="black"/>
<path d="M131.675 258.108C119.713 257.541 103.462 259.752 104.373 269.316C104.934 275.211 113.777 275.519 116.274 281.084C120.026 289.447 106.225 295.625 111.373 303.499C118.388 314.226 137.534 313.859 149.876 306.861C161.674 300.171 163.668 289.406 159.677 278.282C155.616 266.963 146.361 258.804 131.675 258.108Z" fill="#FF0000" stroke="black"/>
<path d="M97.31 344.226C92.5375 345.009 95.2891 338.755 94.5054 338.363C94.5054 338.363 93.1015 337.664 92.2617 337.117C90.6995 336.099 88.6367 334.009 88.6367 334.009C88.9171 333.718 89.1933 333.44 89.457 333.19C98.6181 324.496 105.346 324.215 105.724 324.215C114.138 324.215 118.97 329.575 119.488 329.825C118.962 333.527 118.069 334.948 111.894 338.238C111.894 338.238 113.189 341.923 112.455 343.287C111.936 344.251 111.076 344.52 110.211 343.848C109.825 343.547 109.869 343.164 109.65 342.726C109.093 343.437 106.285 344.97 106.285 340.482C103.129 341.406 102.421 340.995 100.115 340.482C100.522 341.977 100.532 345.705 98.9928 345.53C97.0342 345.308 97.31 344.226 97.31 344.226Z" fill="#00FFD1"/>
<path d="M97.31 344.226V339.921C96.4338 339.532 95.9699 339.095 94.5054 338.363M97.31 344.226C92.5375 345.009 95.2891 338.755 94.5054 338.363M97.31 344.226C97.31 344.226 97.0342 345.308 98.9928 345.53C100.532 345.705 100.522 341.977 100.115 340.482C102.421 340.995 103.129 341.406 106.285 340.482M94.5054 338.363C94.5054 338.363 93.1015 337.664 92.2617 337.117C90.6995 336.099 88.6367 334.009 88.6367 334.009C88.9171 333.718 89.1933 333.44 89.457 333.19C98.6181 324.496 105.346 324.215 105.724 324.215C114.138 324.215 118.97 329.575 119.488 329.825C118.962 333.527 118.069 334.948 111.894 338.238C111.894 338.238 113.189 341.923 112.455 343.287C111.936 344.251 111.076 344.52 110.211 343.848C109.825 343.547 109.869 343.164 109.65 342.726M106.285 340.482C106.285 344.97 109.093 343.437 109.65 342.726M106.285 340.482C107.407 340.389 109.089 339.36 109.089 339.36C109.089 339.36 109.212 341.412 109.65 342.726" stroke="#FF478E"/>
<path d="M191.732 278.311H187.805C187.805 278.311 182.332 277.602 181.074 274.946C180.039 272.759 181.027 271.117 181.635 268.775C182.903 263.894 185.186 261.499 188.927 258.118C190.911 256.325 192.163 255.424 194.536 254.191C199.684 251.518 203.33 251.061 209.12 251.387C212.466 251.575 214.511 251.624 217.534 253.07C222.293 255.346 225.272 258.038 226.509 263.166C227.125 265.722 227.432 267.436 226.509 269.897C224.65 274.854 214.169 275.506 214.169 275.506C214.254 275.855 209.528 281.733 205.194 282.798C198.77 284.377 191.031 278.96 191.732 278.311Z" fill="#BCEA73"/>
<path d="M191.732 278.311H187.805C187.805 278.311 182.332 277.602 181.074 274.946C180.039 272.759 181.027 271.117 181.635 268.775C182.903 263.894 185.186 261.499 188.927 258.118C190.911 256.325 192.163 255.424 194.536 254.191C199.684 251.518 203.33 251.061 209.12 251.387C212.466 251.575 214.511 251.624 217.534 253.07C222.293 255.346 225.272 258.038 226.509 263.166C227.125 265.722 227.432 267.436 226.509 269.897C224.65 274.854 214.169 275.506 214.169 275.506M191.732 278.311C191.031 278.96 198.77 284.377 205.194 282.798C209.528 281.733 214.254 275.855 214.169 275.506M191.732 278.311C200.726 278.191 205.82 277.636 214.169 275.506M216.412 267.093C215.183 268.416 213.632 268.804 211.925 268.214C210.308 267.656 209.584 266.496 209.12 264.849C208.154 261.417 212.161 258.17 215.291 258.118M190.049 260.921C190.594 260.361 194.823 261.645 196.219 263.166C200.546 267.88 192.723 274.402 188.927 271.579" stroke="black"/>
<path d="M223.111 256.841L223.245 256.905C221.136 248.977 219.879 237.834 219.879 237.834C231.659 238.395 245.121 231.574 245.121 231.574L254.096 216.519C254.096 216.519 245.486 217.724 241.194 214.836C236.903 211.948 230.537 215.958 228.293 217.08C226.049 218.201 220.44 218.762 219.318 215.958C216.67 211.906 213.703 210.016 206.417 210.909C208.108 208.698 206.417 201.935 206.417 201.935C206.417 201.935 207.539 206.983 201.93 210.348C203.556 207.205 203.229 205.666 201.93 203.056C201.442 206.466 199.794 208.321 197.442 210.348C198.796 206.422 199.125 202.495 199.125 202.495L195.199 207.263L191.272 212.031C191.272 212.031 187.004 216.902 183.419 218.762C180.96 220.039 180.948 219.75 176.688 221.006C170.126 222.328 168.668 221.535 162.104 220.445C157.133 220.771 155.316 221.882 153.129 224.932C150.152 228.905 148.31 230.506 144.715 231.664C141.121 232.821 137.984 231.664 137.984 231.664L143.594 238.395C148.806 242.385 152.369 244.101 158.739 245.687C163.646 246.908 166.808 248.302 171.64 246.809C174.834 245.821 176.084 243.635 178.932 242.321C181.416 241.128 182.37 241.378 182.858 244.565C183.978 253.768 183.762 257.801 182.858 267.002C184.842 265.209 188.468 258.588 195.199 254.661C200.208 251.739 203.992 251.531 209.783 251.857C213.08 252.042 220.017 255.361 223.111 256.841Z" fill="#BCEA73"/>
<path d="M229.728 219.884C229.728 219.884 234.175 220.758 236.707 221.006C239.977 221.326 245.121 220.445 245.121 220.445C245.121 220.445 241.923 225.207 239.512 227.176C237.1 229.145 231.659 231.103 231.659 231.103M171.079 237.834C167.605 238.129 163.898 242.718 158.739 240.638C157.152 239.999 149.202 236.712 149.202 236.712C149.202 236.712 158.157 231.174 161.356 225.493M173.883 224.932C172.249 226.018 169.957 226.054 167.152 226.054C164.347 226.054 161.356 225.493 161.356 225.493M158.739 224.932L161.356 225.493M143.594 238.395L137.984 231.664C137.984 231.664 141.121 232.821 144.715 231.664C148.31 230.506 150.152 228.905 153.129 224.932C155.316 221.882 157.133 220.771 162.104 220.445C168.668 221.535 170.126 222.328 176.688 221.006C180.948 219.75 180.96 220.039 183.419 218.762C187.004 216.902 191.272 212.031 191.272 212.031L195.199 207.263L199.125 202.495C199.125 202.495 198.796 206.422 197.442 210.348C199.794 208.321 201.442 206.466 201.93 203.056C203.229 205.666 203.556 207.205 201.93 210.348C207.539 206.983 206.417 201.935 206.417 201.935C206.417 201.935 208.108 208.698 206.417 210.909C213.703 210.016 216.67 211.906 219.318 215.958C220.44 218.762 226.049 218.201 228.293 217.08C230.537 215.958 236.903 211.948 241.194 214.836C245.486 217.724 254.096 216.519 254.096 216.519L245.121 231.574C245.121 231.574 231.659 238.395 219.879 237.834C219.879 237.834 221.136 248.977 223.245 256.905C220.222 255.459 213.128 252.045 209.783 251.857C203.992 251.531 200.208 251.739 195.199 254.661C188.468 258.588 184.842 265.209 182.858 267.002C183.762 257.801 183.978 253.768 182.858 244.565C182.37 241.378 181.416 241.128 178.932 242.321C176.084 243.635 174.834 245.821 171.64 246.809C166.808 248.302 163.646 246.908 158.739 245.687C152.369 244.101 148.806 242.385 143.594 238.395Z" stroke="black"/>
<path fill-rule="evenodd" clip-rule="evenodd" d="M192.5 236.113C192.5 236.113 184.746 237.534 182.965 235.552C180.91 233.265 181.672 230.152 183.526 227.699C184.168 226.849 184.935 226.03 185.769 225.417C185.093 232.264 186.92 232.327 192.256 228.821C192.449 229.771 192.5 230.504 192.5 230.504V236.113Z" fill="white"/>
<path d="M185.769 225.417C185.093 232.264 186.92 232.327 192.256 228.821C192.089 227.999 191.816 227.014 191.379 226.201C188.834 228.026 187.874 227.641 186.891 224.749C186.508 224.923 186.132 225.151 185.769 225.417Z" fill="#A6DFFF"/>
<path d="M191.379 226.201C191.085 225.654 190.717 225.185 190.257 224.895C189.141 224.191 187.983 224.253 186.891 224.749C187.874 227.641 188.834 228.026 191.379 226.201Z" fill="#FF7C7C"/>
<path d="M192.256 228.821C192.449 229.771 192.5 230.504 192.5 230.504V236.113C192.5 236.113 184.746 237.534 182.965 235.552C180.91 233.265 181.672 230.152 183.526 227.699C184.168 226.849 184.935 226.03 185.769 225.417M192.256 228.821C186.92 232.327 185.093 232.264 185.769 225.417M192.256 228.821C192.089 227.999 191.816 227.014 191.379 226.201M185.769 225.417C186.132 225.151 186.508 224.923 186.891 224.749M191.379 226.201C191.085 225.654 190.717 225.185 190.257 224.895C189.141 224.191 187.983 224.253 186.891 224.749M191.379 226.201C188.834 228.026 187.874 227.641 186.891 224.749" stroke="black"/>
<path fill-rule="evenodd" clip-rule="evenodd" d="M207.537 234.991C207.537 234.991 215.291 236.412 217.072 234.43C219.127 232.143 218.365 229.029 216.512 226.577C215.869 225.727 215.102 224.908 214.268 224.295C214.944 231.141 213.117 231.205 207.781 227.699C207.588 228.649 207.537 229.381 207.537 229.381V234.991Z" fill="white"/>
<path d="M214.268 224.295C214.944 231.141 213.117 231.205 207.781 227.699C207.949 226.876 208.222 225.892 208.659 225.078C211.204 226.904 212.163 226.518 213.146 223.627C213.53 223.801 213.905 224.028 214.268 224.295Z" fill="#A6DFFF"/>
<path d="M208.659 225.078C208.952 224.532 209.32 224.062 209.78 223.772C210.896 223.068 212.054 223.131 213.146 223.627C212.163 226.518 211.204 226.904 208.659 225.078Z" fill="#FF7C7C"/>
<path d="M207.781 227.699C207.588 228.649 207.537 229.381 207.537 229.381V234.991C207.537 234.991 215.291 236.412 217.072 234.43C219.127 232.143 218.365 229.029 216.512 226.577C215.869 225.727 215.102 224.908 214.268 224.295M207.781 227.699C213.117 231.205 214.944 231.141 214.268 224.295M207.781 227.699C207.949 226.876 208.222 225.892 208.659 225.078M214.268 224.295C213.905 224.028 213.53 223.801 213.146 223.627M208.659 225.078C208.952 224.532 209.32 224.062 209.78 223.772C210.896 223.068 212.054 223.131 213.146 223.627M208.659 225.078C211.204 226.904 212.163 226.518 213.146 223.627" stroke="black"/>
<path d="M186.678 244.487C186.678 244.487 182.751 247.292 176.02 242.805C170.082 239.389 170.759 231.942 174.832 227.129C175.058 226.863 175.294 226.604 175.541 226.354C178.395 223.462 182.579 221.811 187.239 223.172C196.061 225.045 201.441 224.184 211.358 221.49C214.432 220.592 217.299 221.004 219.714 222.22C222.527 224.086 224.6 226.538 224.6 226.538C225.765 228.226 226.541 230.143 226.817 232.058C227.322 235.57 226.141 239.072 222.577 241.122C221.122 242.092 219.798 242.721 218.617 243.112C214.332 244.528 211.919 242.805 211.919 242.805C207.411 238.748 204.331 235.508 202.697 232.841C199.31 227.313 202.139 224.249 211.358 221.49C201.441 224.184 196.061 225.045 187.239 223.172C200.905 227.263 200.531 232.022 186.678 244.487Z" fill="#FF0000"/>
<path d="M187.239 223.172C200.905 227.263 200.531 232.022 186.678 244.487C186.678 244.487 182.751 247.292 176.02 242.805C170.082 239.389 170.759 231.942 174.832 227.129C175.058 226.863 175.294 226.604 175.541 226.354M187.239 223.172C182.579 221.811 178.395 223.462 175.541 226.354M187.239 223.172C196.061 225.045 201.441 224.184 211.358 221.49M211.358 221.49C202.139 224.249 199.31 227.313 202.697 232.841M211.358 221.49C214.432 220.592 217.299 221.004 219.714 222.22C222.527 224.086 224.6 226.538 224.6 226.538C225.765 228.226 226.541 230.143 226.817 232.058C227.322 235.57 226.141 239.072 222.577 241.122C221.122 242.092 219.798 242.721 218.617 243.112C214.332 244.528 211.919 242.805 211.919 242.805C207.411 238.748 204.331 235.508 202.697 232.841M202.697 232.841C200.283 230.022 199.097 230.237 196.887 233.088M175.541 226.354C172.49 225.011 170.365 228.996 172.504 231.025M175.541 226.354C175.552 226.359 175.564 226.364 175.575 226.37M226.093 229.343C228.241 227.306 226.091 223.298 223.022 224.687" stroke="black"/>
</svg>
