<svg width="1920" height="884" viewBox="0 0 1920 884" fill="none" xmlns="http://www.w3.org/2000/svg">
    <g id="Group 327">
        <rect id="Rectangle 390" width="1920" height="884" fill="#D9D9D9" fill-opacity="0.14" />
        <path id="this"
            d="M130.859 549.762C168.455 650.184 247.166 711.997 354.36 709.262C472.848 706.238 631.849 609.376 575.855 501.762C519.86 394.148 405.477 335.611 421.24 474.762C437.004 613.913 520.664 640.993 714.855 696.762C909.046 752.531 1115.35 516.762 1036.85 441.762C958.355 366.762 845.855 345.762 751.361 422.762C656.866 499.762 735.624 604.922 987.86 667.262C1240.1 729.602 1573.79 523.191 1411.36 422.762C1314.37 362.793 1161.37 378.762 1119.36 422.762C1077.35 466.762 1097.35 521.262 1345.36 577.762C1593.37 634.262 1838.65 429.066 1726.86 275.262C1639.19 154.64 1427.99 135.134 1345.36 259.262C1248.79 404.328 1600.45 610.719 1726.86 490.762C1763.86 455.652 1775.35 425.849 1792.36 377.762C1883.34 120.549 1370.89 203.311 1103.86 259.262C1025.47 275.686 988.942 323.771 908.86 322.762C804.066 321.441 769.113 183.78 666.861 206.762C595.512 222.798 591.046 306.02 519.86 322.762C408.979 348.84 366.702 140.072 262.36 185.762C196.393 214.648 179.847 267.202 152.355 333.762C119.993 412.111 101.138 470.373 130.859 549.762Z"
            stroke="#FF0000" stroke-width="5" />
    </g>
</svg>