<svg width="1915" height="117" viewBox="0 0 1915 117" fill="none" xmlns="http://www.w3.org/2000/svg">
<path d="M278.073 27.0503C263.069 69.7638 122.032 2.42719 0 117H1915C1915 117 1766.46 83.3316 1849.48 27.0503C1932.5 -29.2311 1781.47 30.4427 1628.43 73.2814C1475.39 116.12 1457.12 67.7686 1347.35 64.2362C1347.35 64.2362 1333.85 4.43721 1225.32 73.2814C1116.79 142.126 1264.83 -12.1462 1172.37 51.8618C1079.91 115.87 1119.42 30.4422 1119.42 30.4422L989.258 4.43721C1228.82 191.372 679.677 42.6276 679.677 42.6276C679.677 42.6276 348.091 -56.8697 479.125 48.1552C610.159 153.18 278.073 27.0503 278.073 27.0503Z" fill="#B9FF26"/>
</svg>
